<svg width="275" height="32" viewBox="0 0 275 32" fill="none" xmlns="http://www.w3.org/2000/svg">
<path d="M266.219 31.3598V24.0615H274.012V31.3598H266.219Z" fill="#4A86FF"/>
<path d="M230.095 15.889C230.095 13.5829 230.513 11.4543 231.35 9.50298C232.211 7.5517 233.377 5.87917 234.847 4.4854C236.342 3.06629 238.103 1.96395 240.13 1.17837C242.158 0.392789 244.362 0 246.744 0C249.152 0 251.369 0.392789 253.397 1.17837C255.424 1.96395 257.172 3.06629 258.642 4.4854C260.137 5.87917 261.29 7.5517 262.101 9.50298C262.938 11.4543 263.356 13.5829 263.356 15.889C263.356 18.2204 262.938 20.3617 262.101 22.313C261.29 24.2643 260.137 25.9495 258.642 27.3686C257.172 28.7877 255.424 29.89 253.397 30.6756C251.369 31.4612 249.152 31.854 246.744 31.854C244.362 31.854 242.158 31.4612 240.13 30.6756C238.103 29.89 236.342 28.7877 234.847 27.3686C233.377 25.9495 232.211 24.2643 231.35 22.313C230.513 20.3617 230.095 18.2204 230.095 15.889ZM238.002 15.889C238.002 17.2827 238.204 18.5625 238.61 19.7282C239.041 20.8685 239.636 21.8568 240.396 22.6931C241.157 23.5294 242.069 24.1882 243.133 24.6697C244.223 25.1259 245.427 25.3539 246.744 25.3539C248.062 25.3539 249.253 25.1259 250.318 24.6697C251.407 24.1882 252.332 23.5294 253.092 22.6931C253.853 21.8568 254.436 20.8685 254.841 19.7282C255.272 18.5625 255.487 17.2827 255.487 15.889C255.487 14.5459 255.272 13.3042 254.841 12.1638C254.436 11.0234 253.853 10.0351 253.092 9.19888C252.332 8.36262 251.407 7.71642 250.318 7.26027C249.253 6.77879 248.062 6.53805 246.744 6.53805C245.427 6.53805 244.223 6.77879 243.133 7.26027C242.069 7.71642 241.157 8.36262 240.396 9.19888C239.636 10.0351 239.041 11.0234 238.61 12.1638C238.204 13.3042 238.002 14.5459 238.002 15.889Z" fill="#4A86FF"/>
<path d="M225.547 0.79834V31.0938H217.641V0.79834H225.547Z" fill="#4A86FF"/>
<path d="M191.841 0.79834H199.748V24.5558H214.23V31.0938H191.841V0.79834Z" fill="#4A86FF"/>
<path d="M155.185 15.889C155.185 13.5829 155.603 11.4543 156.439 9.50298C157.301 7.5517 158.467 5.87917 159.937 4.4854C161.432 3.06629 163.193 1.96395 165.22 1.17837C167.248 0.392789 169.452 0 171.834 0C174.242 0 176.459 0.392789 178.486 1.17837C180.514 1.96395 182.262 3.06629 183.732 4.4854C185.227 5.87917 186.38 7.5517 187.191 9.50298C188.027 11.4543 188.445 13.5829 188.445 15.889C188.445 18.2204 188.027 20.3617 187.191 22.313C186.38 24.2643 185.227 25.9495 183.732 27.3686C182.262 28.7877 180.514 29.89 178.486 30.6756C176.459 31.4612 174.242 31.854 171.834 31.854C169.452 31.854 167.248 31.4612 165.22 30.6756C163.193 29.89 161.432 28.7877 159.937 27.3686C158.467 25.9495 157.301 24.2643 156.439 22.313C155.603 20.3617 155.185 18.2204 155.185 15.889ZM163.092 15.889C163.092 17.2827 163.294 18.5625 163.7 19.7282C164.131 20.8685 164.726 21.8568 165.486 22.6931C166.247 23.5294 167.159 24.1882 168.223 24.6697C169.313 25.1259 170.517 25.3539 171.834 25.3539C173.152 25.3539 174.343 25.1259 175.407 24.6697C176.497 24.1882 177.422 23.5294 178.182 22.6931C178.943 21.8568 179.525 20.8685 179.931 19.7282C180.362 18.5625 180.577 17.2827 180.577 15.889C180.577 14.5459 180.362 13.3042 179.931 12.1638C179.525 11.0234 178.943 10.0351 178.182 9.19888C177.422 8.36262 176.497 7.71642 175.407 7.26027C174.343 6.77879 173.152 6.53805 171.834 6.53805C170.517 6.53805 169.313 6.77879 168.223 7.26027C167.159 7.71642 166.247 8.36262 165.486 9.19888C164.726 10.0351 164.131 11.0234 163.7 12.1638C163.294 13.3042 163.092 14.5459 163.092 15.889Z" fill="#4A86FF"/>
<path d="M151.804 12.354V18.892H136.865V31.0938H128.958V0.79834H152.526V7.33639H136.865V12.354H151.804Z" fill="#4A86FF"/>
<path d="M115.524 7.33639V31.0938H107.618V7.33639H98.001V0.79834H125.141V7.33639H115.524Z" fill="#4A86FF"/>
<path d="M68.0059 0.79834H84.9972C86.3149 0.79834 87.544 0.975729 88.6843 1.33051C89.85 1.68528 90.851 2.23012 91.6873 2.96502C92.5235 3.67458 93.1824 4.59953 93.6639 5.73989C94.1454 6.88024 94.3861 8.22333 94.3861 9.76915C94.3861 11.7964 94.044 13.4436 93.3598 14.7107C92.6756 15.9524 91.6619 16.9534 90.3188 17.7136L96.0967 31.0938H87.8481L83.1346 19.9944L75.9123 21.5909V31.0938H68.0059V0.79834ZM86.5177 9.95921C86.5177 9.24965 86.2769 8.64146 85.7954 8.13464C85.3393 7.60247 84.7184 7.33639 83.9328 7.33639H75.9123V14.6727L83.1346 13.3423C84.427 13.1142 85.3139 12.6961 85.7954 12.0879C86.2769 11.4797 86.5177 10.7701 86.5177 9.95921Z" fill="#4A86FF"/>
<path d="M30.1987 15.889C30.1987 13.5829 30.6169 11.4543 31.4531 9.50298C32.3147 7.5517 33.4804 5.87917 34.9502 4.4854C36.4454 3.06629 38.2066 1.96395 40.2339 1.17837C42.2612 0.392789 44.4659 0 46.8479 0C49.2554 0 51.4727 0.392789 53.5 1.17837C55.5273 1.96395 57.2759 3.06629 58.7457 4.4854C60.2408 5.87917 61.3938 7.5517 62.2048 9.50298C63.041 11.4543 63.4591 13.5829 63.4591 15.889C63.4591 18.2204 63.041 20.3617 62.2048 22.313C61.3938 24.2643 60.2408 25.9495 58.7457 27.3686C57.2759 28.7877 55.5273 29.89 53.5 30.6756C51.4727 31.4612 49.2554 31.854 46.8479 31.854C44.4659 31.854 42.2612 31.4612 40.2339 30.6756C38.2066 29.89 36.4454 28.7877 34.9502 27.3686C33.4804 25.9495 32.3147 24.2643 31.4531 22.313C30.6169 20.3617 30.1987 18.2204 30.1987 15.889ZM38.1052 15.889C38.1052 17.2827 38.3079 18.5625 38.7134 19.7282C39.1442 20.8685 39.7397 21.8568 40.5 22.6931C41.2602 23.5294 42.1725 24.1882 43.2368 24.6697C44.3265 25.1259 45.5302 25.3539 46.8479 25.3539C48.1657 25.3539 49.3567 25.1259 50.4211 24.6697C51.5107 24.1882 52.4357 23.5294 53.1959 22.6931C53.9562 21.8568 54.539 20.8685 54.9445 19.7282C55.3753 18.5625 55.5907 17.2827 55.5907 15.889C55.5907 14.5459 55.3753 13.3042 54.9445 12.1638C54.539 11.0234 53.9562 10.0351 53.1959 9.19888C52.4357 8.36262 51.5107 7.71642 50.4211 7.26027C49.3567 6.77879 48.1657 6.53805 46.8479 6.53805C45.5302 6.53805 44.3265 6.77879 43.2368 7.26027C42.1725 7.71642 41.2602 8.36262 40.5 9.19888C39.7397 10.0351 39.1442 11.0234 38.7134 12.1638C38.3079 13.3042 38.1052 14.5459 38.1052 15.889Z" fill="#4A86FF"/>
<path d="M0 0.79834H16.9913C18.3091 0.79834 19.5381 0.975729 20.6785 1.33051C21.8442 1.68528 22.8452 2.23012 23.6814 2.96502C24.5177 3.67458 25.1765 4.59953 25.658 5.73989C26.1395 6.88024 26.3803 8.22333 26.3803 9.76915C26.3803 11.2896 26.1902 12.5947 25.8101 13.6844C25.43 14.7487 24.8598 15.661 24.0995 16.4212C23.3393 17.1561 22.389 17.777 21.2487 18.2838C20.1336 18.7653 18.8412 19.1708 17.3714 19.5002L7.90648 21.5909V31.0938H0V0.79834ZM18.5118 9.95921C18.5118 9.24965 18.2711 8.64146 17.7896 8.13464C17.3334 7.60247 16.7126 7.33639 15.927 7.33639H7.90648V14.6727L15.1287 13.3423C16.4211 13.1142 17.3081 12.6961 17.7896 12.0879C18.2711 11.4797 18.5118 10.7701 18.5118 9.95921Z" fill="#4A86FF"/>
</svg>
